Coordinates
version=1
nRows=10
nColumns=63
inDegrees=yes

Units are S.I. units (second, meters, Newtons, ...)
If the header above contains a line with 'inDegrees', this indicates whether rotational values are in degrees (yes) or radians (no).

endheader
time	pelvis_tilt	pelvis_list	pelvis_rotation	pelvis_tx	pelvis_ty	pelvis_tz	hip_flexion_r	hip_adduction_r	hip_rotation_r	knee_angle_r	knee_angle_r_beta	ankle_angle_r	subtalar_angle_r	mtp_angle_r	hip_flexion_l	hip_adduction_l	hip_rotation_l	knee_angle_l	knee_angle_l_beta	ankle_angle_l	subtalar_angle_l	mtp_angle_l	L5_S1_Flex_Ext	L5_S1_Lat_Bending	L5_S1_axial_rotation	L4_L5_Flex_Ext	L4_L5_Lat_Bending	L4_L5_axial_rotation	L3_L4_Flex_Ext	L3_L4_Lat_Bending	L3_L4_axial_rotation	L2_L3_Flex_Ext	L2_L3_Lat_Bending	L2_L3_axial_rotation	L1_L2_Flex_Ext	L1_L2_Lat_Bending	L1_L2_axial_rotation	L1_T12_Flex_Ext	L1_T12_Lat_Bending	L1_T12_axial_rotation	Abs_r3	Abs_r2	Abs_r1	Abs_t1	Abs_t2	neck_flexion	neck_bending	neck_rotation	arm_flex_r	arm_add_r	arm_rot_r	elbow_flex_r	pro_sup_r	wrist_flex_r	wrist_dev_r	arm_flex_l	arm_add_l	arm_rot_l	elbow_flex_l	pro_sup_l	wrist_flex_l	wrist_dev_l
      2.27586207	     11.10159144	      1.16313293	     98.04430292	      0.11595286	      0.82451476	      0.87931180	      5.87478995	      7.54923434	     -8.06078821	      9.58417212	      0.16727536	     36.96492354	     13.75174817	      0.00000000	      8.83764909	     -5.85185335	      3.68870769	     16.08022032	      0.28065279	     39.49985330	      2.14442295	      0.00000000	     -0.25663936	      1.52898180	     -2.82996224	     -0.47660495	      2.03354580	     -3.00683487	     -0.42163280	      3.71756636	     -3.00683487	     -0.29331312	      3.71756636	     -2.47621696	     -0.23831531	      3.11789970	     -2.29934432	     -0.14664373	      2.36839281	     -2.12247168	     -1.83314926	     17.29614797	    -15.73940096	      0.00000000	      0.00000000	      2.82058681	      3.13884073	     24.91753014	   -284.93521565	    -65.21125486	   -247.65801676	      0.11781402	      1.17555629	    -69.74565315	    -23.61649462	    -28.47308419	    -50.40494496	     19.87882319	      0.10821925	      0.91982623	    -69.76890610	    -23.63584720
      2.29310345	     10.27609868	      1.68530686	     97.73563513	      0.11939564	      0.82538880	      0.88006382	      5.28003099	      6.96098055	     -7.59448161	      9.69073367	      0.16913521	     37.17424397	     13.39956260	      0.00000000	      7.99384813	     -5.34486315	      2.51641368	     15.74016094	      0.27471763	     39.51741780	      3.01259012	      0.00000000	     -0.21305998	      1.28585638	     -0.80515146	     -0.39567369	      1.71018899	     -0.85547342	     -0.35003624	      3.12643121	     -0.85547342	     -0.24350625	      3.12643121	     -0.70450752	     -0.19784750	      2.62211834	     -0.65418556	     -0.12174247	      1.99179154	     -0.60386359	     -1.52186614	     14.54586459	     -4.47801086	      0.00000000	      0.00000000	      5.18043191	      5.34539303	     10.62450408	   -324.47543872	    -72.25480286	   -286.40781614	      0.14527178	      1.25855042	    -69.66240042	    -22.41444228	     -5.15540539	    -51.97673509	     40.99881824	      0.13331224	      1.13048641	    -69.67105081	    -23.17828044
      2.31034483	      9.65316799	      1.36377853	     97.55802454	      0.12278020	      0.82272774	      0.87875158	      5.57077062	      6.45357118	     -7.08862205	      9.91342005	      0.17302182	     37.87331990	     13.02080670	      0.00000000	      8.25094940	     -4.92790431	      1.32652055	     15.91234690	      0.27772285	     40.12027292	      4.07503466	      0.00000000	     -0.16362809	      1.10776188	     -0.45579235	     -0.30387373	      1.47332331	     -0.48427937	     -0.26882459	      2.69341224	     -0.48427937	     -0.18701055	      2.69341224	     -0.39881830	     -0.15194505	      2.25894803	     -0.37033128	     -0.09349709	      1.71592316	     -0.34184426	     -1.16877910	     12.53122398	     -2.53498029	      0.00000000	      0.00000000	      7.39670625	      6.32566584	      6.57004348	   -337.61479931	    -66.94581188	   -292.46365243	      0.18843789	      1.83886703	    -69.37797629	    -13.51078606	      0.03938068	    -48.77401974	     48.47946975	      0.18697505	      1.55160634	    -69.31256243	    -21.55907024
      2.32758621	      9.48825179	      1.04207082	     97.38288187	      0.12440950	      0.81941151	      0.87738838	      5.96848901	      6.32929515	     -6.50700701	     10.24545790	      0.17881697	     38.54926077	     12.61886153	      0.00000000	      8.63737118	     -4.85333986	      0.49510272	     16.21999276	      0.28309228	     40.85325331	      4.75133288	      0.00000000	     -0.12838282	      1.04643522	     -0.36581436	     -0.23841973	      1.39175885	     -0.38867776	     -0.21092013	      2.54430260	     -0.38867776	     -0.14672872	      2.54430260	     -0.32008757	     -0.11921628	      2.13389071	     -0.29722417	     -0.07335794	      1.62092816	     -0.27436077	     -0.91702562	     11.83748454	     -2.03454974	      0.00000000	      0.00000000	      9.79403592	      6.08420293	      5.28872669	   -341.29891603	    -61.45569047	   -289.45660749	      0.26892200	      2.87009753	    -66.64352239	     -7.34157589	      2.16904311	    -44.81450566	     55.44205145	      0.27807729	      2.31740269	    -66.58390568	    -18.57520494
      2.34482759	      9.70124104	      0.80030632	     97.16548513	      0.12422925	      0.81710028	      0.87605148	      6.32747258	      6.43919756	     -6.70006415	     10.60769113	      0.18513914	     39.08392100	     13.35284409	      0.00000000	      8.92583502	     -5.05696868	     -0.04251157	     16.41623924	      0.28651743	     41.38185361	      5.05725328	      0.00000000	     -0.08519578	      1.08369156	     -0.40832860	     -0.15821709	      1.44130977	     -0.43384914	     -0.13996815	      2.63488765	     -0.43384914	     -0.09737026	      2.63488765	     -0.35728753	     -0.07911280	      2.20986382	     -0.33176699	     -0.04868087	      1.67863822	     -0.30624645	     -0.60854496	     12.25893563	     -2.27100120	      0.00000000	      0.00000000	     11.29448039	      5.00707741	      5.97038128	   -342.03138561	    -56.75889424	   -283.80754148	      0.32454014	      2.83187526	    -56.40736243	     -5.39046821	      2.77697463	    -40.44605706	     59.90672717	      0.37407803	      2.83475039	    -55.53922073	    -17.29105626
      2.36206897	     10.01442815	      0.67331680	     96.95248400	      0.12397454	      0.81476016	      0.87608720	      6.91573799	      6.58936643	     -7.24356448	     11.46149014	      0.20004074	     39.77799841	     14.50982536	      0.00000000	      9.40228167	     -5.41273995	     -0.70755972	     17.02497828	      0.29714193	     41.98182905	      5.52991776	      0.00000000	     -0.09215547	      1.14904849	     -0.40943860	     -0.17114192	      1.52823450	     -0.43502852	     -0.15140222	      2.79379651	     -0.43502852	     -0.10532449	      2.79379651	     -0.35825878	     -0.08557557	      2.34313969	     -0.33266887	     -0.05265763	      1.77987612	     -0.30707895	     -0.65825730	     12.99826638	     -2.27717469	      0.00000000	      0.00000000	     13.43162856	      3.82340358	      7.34582567	   -342.27751426	    -52.79037199	   -274.29820129	      0.36668553	      2.37378856	    -46.48631837	     -1.76553533	      3.82290347	    -36.20015931	     67.83854246	      0.47351227	      3.35121119	    -45.83798002	    -13.17284296
      2.37931034	     10.44128364	      0.59589246	     96.79075297	      0.12383008	      0.81242672	      0.87659062	      7.48225955	      6.89558169	     -7.58030495	     12.24385576	      0.21369560	     40.39588095	     15.44814370	      0.00000000	      9.94868673	     -5.91965091	     -1.30776666	     17.73858965	      0.30959679	     42.55970876	      6.01998892	      0.00000000	     -0.11050488	      1.23052353	     -0.30032182	     -0.20521861	      1.63659629	     -0.31909194	     -0.18154846	      2.99189490	     -0.31909194	     -0.12629603	      2.99189490	     -0.26278159	     -0.10261483	      2.50928358	     -0.24401148	     -0.06314249	      1.90608094	     -0.22524137	     -0.78932530	     13.91992824	     -1.67029988	      0.00000000	      0.00000000	     15.71484779	      2.66383858	      8.49935247	   -343.10489543	    -49.29281678	   -268.11036883	      0.44202456	      2.25378982	    -37.40411180	     -1.05192588	      5.65995375	    -31.97631150	     77.17279059	      0.60566194	      4.59650770	    -38.29026983	     -7.70326403
      2.39655172	     10.80578256	      0.50017472	     96.68736484	      0.12392047	      0.80993880	      0.87747517	      8.12608186	      7.16659470	     -7.64497031	     13.07465143	      0.22819572	     40.98679558	     16.00574852	      0.00000000	     10.59251672	     -6.39317087	     -1.86974619	     18.54081084	      0.32359820	     43.09320183	      6.49336574	      0.00000000	     -0.13948782	      1.30391954	     -0.11977480	     -0.25904283	      1.73421299	     -0.12726073	     -0.22916454	      3.17034998	     -0.12726073	     -0.15942063	      3.17034998	     -0.10480295	     -0.12952839	      2.65895273	     -0.09731703	     -0.07970334	      2.01977137	     -0.08983110	     -0.99634756	     14.75019865	     -0.66615152	      0.00000000	      0.00000000	     18.19962225	      1.57025347	      9.62791872	   -343.95158665	    -46.02748924	   -264.50362784	      0.64526438	      2.10112578	    -30.13788997	     -1.59417215	      7.79110348	    -27.74783857	     83.62559560	      0.84022582	      5.85476120	    -31.28902291	     -5.04280546
      2.41379310	     11.27613356	      0.33460905	     96.60858081	      0.12396841	      0.80714811	      0.87862008	      8.88173746	      7.52676431	     -7.81048199	     13.93800991	      0.24326416	     41.47486867	     16.42701823	      0.00000000	     11.43607535	     -7.00031655	     -2.42023349	     19.53726986	      0.34098969	     43.67862331	      6.91319618	      0.00000000	     -0.17334341	      1.38830105	      0.07370887	     -0.32191605	      1.84644039	      0.07831568	     -0.28478589	      3.37551517	      0.07831568	     -0.19811418	      3.37551517	      0.06449526	     -0.16096669	      2.83102350	      0.05988846	     -0.09904842	      2.15047832	      0.05528166	     -1.23817464	     15.70473911	      0.40994664	      0.00000000	      0.00000000	     20.88771098	      0.54015432	     10.81929424	   -344.09897839	    -43.11622133	   -263.47200061	      1.33860291	      2.42750048	    -24.33913604	     -1.69432652	      9.93756234	    -23.56115153	     88.66234265	      1.29952297	      5.18325218	    -25.55209698	     -3.71076076
      2.43103448	     11.74731816	      0.07517751	     96.67230556	      0.12358718	      0.80416018	      0.87973170	      9.68559518	      7.85763250	     -7.97442296	     14.74742241	      0.25739108	     41.77990571	     16.40872987	      0.00000000	     12.39761507	     -7.52208683	     -2.53452300	     20.53369669	      0.35838061	     44.15026865	      6.82245961	      0.00000000	     -0.19083643	      1.46699597	      0.22486905	     -0.35440233	      1.95110465	      0.23892337	     -0.31352517	      3.56685401	      0.23892337	     -0.21810695	      3.56685401	      0.19676042	     -0.17721071	      2.99149819	      0.18270610	     -0.10904394	      2.27237676	      0.16865179	     -1.36312553	     16.59495186	      1.25065420	      0.00000000	      0.00000000	     23.31211625	     -0.28866329	     11.82235903	   -343.65632561	    -40.78602762	   -266.62252931	      3.57540600	      2.95069999	    -20.80156239	     -2.40169343	     11.94182216	    -19.66608114	     91.51350178	      2.23482242	      4.92155428	    -21.34577086	     -3.38555691
